<svg width="184" height="53" viewBox="0 0 184 53" fill="none" xmlns="http://www.w3.org/2000/svg">
<path d="M2.988 3.8H14.436C17.172 3.8 19.584 4.328 21.672 5.384C23.784 6.416 25.416 7.88 26.568 9.776C27.744 11.672 28.332 13.88 28.332 16.4C28.332 18.92 27.744 21.128 26.568 23.024C25.416 24.92 23.784 26.396 21.672 27.452C19.584 28.484 17.172 29 14.436 29H2.988V3.8ZM14.148 24.212C16.668 24.212 18.672 23.516 20.16 22.124C21.672 20.708 22.428 18.8 22.428 16.4C22.428 14 21.672 12.104 20.16 10.712C18.672 9.296 16.668 8.588 14.148 8.588H8.82V24.212H14.148ZM51.3062 19.388C51.3062 19.46 51.2702 19.964 51.1982 20.9H36.5462C36.8102 22.1 37.4342 23.048 38.4182 23.744C39.4022 24.44 40.6262 24.788 42.0902 24.788C43.0982 24.788 43.9862 24.644 44.7542 24.356C45.5462 24.044 46.2782 23.564 46.9502 22.916L49.9382 26.156C48.1142 28.244 45.4502 29.288 41.9462 29.288C39.7622 29.288 37.8302 28.868 36.1502 28.028C34.4702 27.164 33.1742 25.976 32.2622 24.464C31.3502 22.952 30.8942 21.236 30.8942 19.316C30.8942 17.42 31.3382 15.716 32.2262 14.204C33.1382 12.668 34.3742 11.48 35.9342 10.64C37.5182 9.776 39.2822 9.344 41.2262 9.344C43.1222 9.344 44.8382 9.752 46.3742 10.568C47.9102 11.384 49.1102 12.56 49.9742 14.096C50.8622 15.608 51.3062 17.372 51.3062 19.388ZM41.2622 13.592C39.9902 13.592 38.9222 13.952 38.0582 14.672C37.1942 15.392 36.6662 16.376 36.4742 17.624H46.0142C45.8222 16.4 45.2942 15.428 44.4302 14.708C43.5662 13.964 42.5102 13.592 41.2622 13.592ZM61.5611 29.288C59.9531 29.288 58.3811 29.096 56.8451 28.712C55.3091 28.304 54.0851 27.8 53.1731 27.2L55.0451 23.168C55.9091 23.72 56.9531 24.176 58.1771 24.536C59.4011 24.872 60.6011 25.04 61.7771 25.04C64.1531 25.04 65.3411 24.452 65.3411 23.276C65.3411 22.724 65.0171 22.328 64.3691 22.088C63.7211 21.848 62.7251 21.644 61.3811 21.476C59.7971 21.236 58.4891 20.96 57.4571 20.648C56.4251 20.336 55.5251 19.784 54.7571 18.992C54.0131 18.2 53.6411 17.072 53.6411 15.608C53.6411 14.384 53.9891 13.304 54.6851 12.368C55.4051 11.408 56.4371 10.664 57.7811 10.136C59.1491 9.608 60.7571 9.344 62.6051 9.344C63.9731 9.344 65.3291 9.5 66.6731 9.812C68.0411 10.1 69.1691 10.508 70.0571 11.036L68.1851 15.032C66.4811 14.072 64.6211 13.592 62.6051 13.592C61.4051 13.592 60.5051 13.76 59.9051 14.096C59.3051 14.432 59.0051 14.864 59.0051 15.392C59.0051 15.992 59.3291 16.412 59.9771 16.652C60.6251 16.892 61.6571 17.12 63.0731 17.336C64.6571 17.6 65.9531 17.888 66.9611 18.2C67.9691 18.488 68.8451 19.028 69.5891 19.82C70.3331 20.612 70.7051 21.716 70.7051 23.132C70.7051 24.332 70.3451 25.4 69.6251 26.336C68.9051 27.272 67.8491 28.004 66.4571 28.532C65.0891 29.036 63.4571 29.288 61.5611 29.288ZM81.9821 9.344C84.9821 9.344 87.2861 10.064 88.8941 11.504C90.5021 12.92 91.3061 15.068 91.3061 17.948V29H86.0501V26.588C84.9941 28.388 83.0261 29.288 80.1461 29.288C78.6581 29.288 77.3621 29.036 76.2581 28.532C75.1781 28.028 74.3501 27.332 73.7741 26.444C73.1981 25.556 72.9101 24.548 72.9101 23.42C72.9101 21.62 73.5821 20.204 74.9261 19.172C76.2941 18.14 78.3941 17.624 81.2261 17.624H85.6901C85.6901 16.4 85.3181 15.464 84.5741 14.816C83.8301 14.144 82.7141 13.808 81.2261 13.808C80.1941 13.808 79.1741 13.976 78.1661 14.312C77.1821 14.624 76.3421 15.056 75.6461 15.608L73.6301 11.684C74.6861 10.94 75.9461 10.364 77.4101 9.956C78.8981 9.548 80.4221 9.344 81.9821 9.344ZM81.5501 25.508C82.5101 25.508 83.3621 25.292 84.1061 24.86C84.8501 24.404 85.3781 23.744 85.6901 22.88V20.9H81.8381C79.5341 20.9 78.3821 21.656 78.3821 23.168C78.3821 23.888 78.6581 24.464 79.2101 24.896C79.7861 25.304 80.5661 25.508 81.5501 25.508ZM96.3889 2.288H102.005V29H96.3889V2.288ZM107.217 9.632H112.833V29H107.217V9.632ZM110.025 6.932C108.993 6.932 108.153 6.632 107.505 6.032C106.857 5.432 106.533 4.688 106.533 3.8C106.533 2.912 106.857 2.168 107.505 1.568C108.153 0.967998 108.993 0.667998 110.025 0.667998C111.057 0.667998 111.897 0.955998 112.545 1.532C113.193 2.108 113.517 2.828 113.517 3.692C113.517 4.628 113.193 5.408 112.545 6.032C111.897 6.632 111.057 6.932 110.025 6.932ZM124.561 29.288C122.953 29.288 121.381 29.096 119.845 28.712C118.309 28.304 117.085 27.8 116.173 27.2L118.045 23.168C118.909 23.72 119.953 24.176 121.177 24.536C122.401 24.872 123.601 25.04 124.777 25.04C127.153 25.04 128.341 24.452 128.341 23.276C128.341 22.724 128.017 22.328 127.369 22.088C126.721 21.848 125.725 21.644 124.381 21.476C122.797 21.236 121.489 20.96 120.457 20.648C119.425 20.336 118.525 19.784 117.757 18.992C117.013 18.2 116.641 17.072 116.641 15.608C116.641 14.384 116.989 13.304 117.685 12.368C118.405 11.408 119.437 10.664 120.781 10.136C122.149 9.608 123.757 9.344 125.605 9.344C126.973 9.344 128.329 9.5 129.673 9.812C131.041 10.1 132.169 10.508 133.057 11.036L131.185 15.032C129.481 14.072 127.621 13.592 125.605 13.592C124.405 13.592 123.505 13.76 122.905 14.096C122.305 14.432 122.005 14.864 122.005 15.392C122.005 15.992 122.329 16.412 122.977 16.652C123.625 16.892 124.657 17.12 126.073 17.336C127.657 17.6 128.953 17.888 129.961 18.2C130.969 18.488 131.845 19.028 132.589 19.82C133.333 20.612 133.705 21.716 133.705 23.132C133.705 24.332 133.345 25.4 132.625 26.336C131.905 27.272 130.849 28.004 129.457 28.532C128.089 29.036 126.457 29.288 124.561 29.288ZM144.982 9.344C147.982 9.344 150.286 10.064 151.894 11.504C153.502 12.92 154.306 15.068 154.306 17.948V29H149.05V26.588C147.994 28.388 146.026 29.288 143.146 29.288C141.658 29.288 140.362 29.036 139.258 28.532C138.178 28.028 137.35 27.332 136.774 26.444C136.198 25.556 135.91 24.548 135.91 23.42C135.91 21.62 136.582 20.204 137.926 19.172C139.294 18.14 141.394 17.624 144.226 17.624H148.69C148.69 16.4 148.318 15.464 147.574 14.816C146.83 14.144 145.714 13.808 144.226 13.808C143.194 13.808 142.174 13.976 141.166 14.312C140.182 14.624 139.342 15.056 138.646 15.608L136.63 11.684C137.686 10.94 138.946 10.364 140.41 9.956C141.898 9.548 143.422 9.344 144.982 9.344ZM144.55 25.508C145.51 25.508 146.362 25.292 147.106 24.86C147.85 24.404 148.378 23.744 148.69 22.88V20.9H144.838C142.534 20.9 141.382 21.656 141.382 23.168C141.382 23.888 141.658 24.464 142.21 24.896C142.786 25.304 143.566 25.508 144.55 25.508ZM161.408 2C162.416 2 163.244 2.324 163.892 2.972C164.54 3.596 164.864 4.424 164.864 5.456C164.864 5.936 164.804 6.416 164.684 6.896C164.564 7.376 164.312 8.096 163.928 9.056L161.84 14.24H158.276L159.824 8.552C159.224 8.288 158.756 7.892 158.42 7.364C158.084 6.836 157.916 6.2 157.916 5.456C157.916 4.424 158.24 3.596 158.888 2.972C159.56 2.324 160.4 2 161.408 2ZM174.553 29.288C172.945 29.288 171.373 29.096 169.837 28.712C168.301 28.304 167.077 27.8 166.165 27.2L168.037 23.168C168.901 23.72 169.945 24.176 171.169 24.536C172.393 24.872 173.593 25.04 174.769 25.04C177.145 25.04 178.333 24.452 178.333 23.276C178.333 22.724 178.009 22.328 177.361 22.088C176.713 21.848 175.717 21.644 174.373 21.476C172.789 21.236 171.481 20.96 170.449 20.648C169.417 20.336 168.517 19.784 167.749 18.992C167.005 18.2 166.633 17.072 166.633 15.608C166.633 14.384 166.981 13.304 167.677 12.368C168.397 11.408 169.429 10.664 170.773 10.136C172.141 9.608 173.749 9.344 175.597 9.344C176.965 9.344 178.321 9.5 179.665 9.812C181.033 10.1 182.161 10.508 183.049 11.036L181.177 15.032C179.473 14.072 177.613 13.592 175.597 13.592C174.397 13.592 173.497 13.76 172.897 14.096C172.297 14.432 171.997 14.864 171.997 15.392C171.997 15.992 172.321 16.412 172.969 16.652C173.617 16.892 174.649 17.12 176.065 17.336C177.649 17.6 178.945 17.888 179.953 18.2C180.961 18.488 181.837 19.028 182.581 19.82C183.325 20.612 183.697 21.716 183.697 23.132C183.697 24.332 183.337 25.4 182.617 26.336C181.897 27.272 180.841 28.004 179.449 28.532C178.081 29.036 176.449 29.288 174.553 29.288ZM7.512 52.288C6.184 52.288 4.896 52.112 3.648 51.76C2.416 51.392 1.424 50.92 0.672 50.344L1.992 47.416C2.712 47.944 3.568 48.368 4.56 48.688C5.552 49.008 6.544 49.168 7.536 49.168C8.64 49.168 9.456 49.008 9.984 48.688C10.512 48.352 10.776 47.912 10.776 47.368C10.776 46.968 10.616 46.64 10.296 46.384C9.992 46.112 9.592 45.896 9.096 45.736C8.616 45.576 7.96 45.4 7.128 45.208C5.848 44.904 4.8 44.6 3.984 44.296C3.168 43.992 2.464 43.504 1.872 42.832C1.296 42.16 1.008 41.264 1.008 40.144C1.008 39.168 1.272 38.288 1.8 37.504C2.328 36.704 3.12 36.072 4.176 35.608C5.248 35.144 6.552 34.912 8.088 34.912C9.16 34.912 10.208 35.04 11.232 35.296C12.256 35.552 13.152 35.92 13.92 36.4L12.72 39.352C11.168 38.472 9.616 38.032 8.064 38.032C6.976 38.032 6.168 38.208 5.64 38.56C5.128 38.912 4.872 39.376 4.872 39.952C4.872 40.528 5.168 40.96 5.76 41.248C6.368 41.52 7.288 41.792 8.52 42.064C9.8 42.368 10.848 42.672 11.664 42.976C12.48 43.28 13.176 43.76 13.752 44.416C14.344 45.072 14.64 45.96 14.64 47.08C14.64 48.04 14.368 48.92 13.824 49.72C13.296 50.504 12.496 51.128 11.424 51.592C10.352 52.056 9.048 52.288 7.512 52.288ZM25.3607 51.376C24.9927 51.648 24.5367 51.856 23.9927 52C23.4647 52.128 22.9047 52.192 22.3127 52.192C20.7767 52.192 19.5847 51.8 18.7367 51.016C17.9047 50.232 17.4887 49.08 17.4887 47.56V42.256H15.4967V39.376H17.4887V36.232H21.2327V39.376H24.4487V42.256H21.2327V47.512C21.2327 48.056 21.3687 48.48 21.6407 48.784C21.9287 49.072 22.3287 49.216 22.8407 49.216C23.4327 49.216 23.9367 49.056 24.3527 48.736L25.3607 51.376ZM33.2079 52.192C31.8479 52.192 30.6239 51.912 29.5359 51.352C28.4639 50.776 27.6239 49.984 27.0159 48.976C26.4079 47.968 26.1039 46.824 26.1039 45.544C26.1039 44.264 26.4079 43.12 27.0159 42.112C27.6239 41.104 28.4639 40.32 29.5359 39.76C30.6239 39.184 31.8479 38.896 33.2079 38.896C34.5679 38.896 35.7839 39.184 36.8559 39.76C37.9279 40.32 38.7679 41.104 39.3759 42.112C39.9839 43.12 40.2879 44.264 40.2879 45.544C40.2879 46.824 39.9839 47.968 39.3759 48.976C38.7679 49.984 37.9279 50.776 36.8559 51.352C35.7839 51.912 34.5679 52.192 33.2079 52.192ZM33.2079 49.12C34.1679 49.12 34.9519 48.8 35.5599 48.16C36.1839 47.504 36.4959 46.632 36.4959 45.544C36.4959 44.456 36.1839 43.592 35.5599 42.952C34.9519 42.296 34.1679 41.968 33.2079 41.968C32.2479 41.968 31.4559 42.296 30.8319 42.952C30.2079 43.592 29.8959 44.456 29.8959 45.544C29.8959 46.632 30.2079 47.504 30.8319 48.16C31.4559 48.8 32.2479 49.12 33.2079 49.12ZM46.3665 40.792C46.8145 40.168 47.4145 39.696 48.1665 39.376C48.9345 39.056 49.8145 38.896 50.8065 38.896V42.352C50.3905 42.32 50.1105 42.304 49.9665 42.304C48.8945 42.304 48.0545 42.608 47.4465 43.216C46.8385 43.808 46.5345 44.704 46.5345 45.904V52H42.7905V39.088H46.3665V40.792ZM65.5635 45.592C65.5635 45.64 65.5395 45.976 65.4915 46.6H55.7235C55.8995 47.4 56.3155 48.032 56.9715 48.496C57.6275 48.96 58.4435 49.192 59.4195 49.192C60.0915 49.192 60.6835 49.096 61.1955 48.904C61.7235 48.696 62.2115 48.376 62.6595 47.944L64.6515 50.104C63.4355 51.496 61.6595 52.192 59.3235 52.192C57.8675 52.192 56.5795 51.912 55.4595 51.352C54.3395 50.776 53.4755 49.984 52.8675 48.976C52.2595 47.968 51.9555 46.824 51.9555 45.544C51.9555 44.28 52.2515 43.144 52.8435 42.136C53.4515 41.112 54.2755 40.32 55.3155 39.76C56.3715 39.184 57.5475 38.896 58.8435 38.896C60.1075 38.896 61.2515 39.168 62.2755 39.712C63.2995 40.256 64.0995 41.04 64.6755 42.064C65.2675 43.072 65.5635 44.248 65.5635 45.592ZM58.8675 41.728C58.0195 41.728 57.3075 41.968 56.7315 42.448C56.1555 42.928 55.8035 43.584 55.6755 44.416H62.0355C61.9075 43.6 61.5555 42.952 60.9795 42.472C60.4035 41.976 59.6995 41.728 58.8675 41.728Z" fill="#FEA804"/>
</svg>
