<svg width="33" height="33" viewBox="0 0 33 33" fill="none" xmlns="http://www.w3.org/2000/svg">
<rect width="32" height="32" rx="5" transform="matrix(1 0.000370255 0.000473589 1 0.00585938 0.439453)" fill="#FEA804"/>
<g clip-path="url(#clip0_48707_4953)">
<path d="M19.3389 10.439C19.514 10.2639 19.7218 10.125 19.9506 10.0303C20.1794 9.93549 20.4246 9.88672 20.6722 9.88672C20.9198 9.88672 21.165 9.93549 21.3938 10.0303C21.6226 10.125 21.8304 10.2639 22.0055 10.439C22.1806 10.6141 22.3195 10.822 22.4143 11.0507C22.509 11.2795 22.5578 11.5247 22.5578 11.7723C22.5578 12.02 22.509 12.2652 22.4143 12.4939C22.3195 12.7227 22.1806 12.9306 22.0055 13.1057L13.0055 22.1057L9.33887 23.1057L10.3389 19.439L19.3389 10.439Z" stroke="white" stroke-width="2" stroke-linecap="round" stroke-linejoin="round"/>
</g>
<defs>
<clipPath id="clip0_48707_4953">
<rect width="16" height="16" fill="white" transform="translate(8.00586 8.43896)"/>
</clipPath>
</defs>
</svg>
